<svg xmlns="http://www.w3.org/2000/svg" width="1600" height="1100" viewBox="0 0 1600 1100"><rect width="100%" height="100%" fill="#f8fafc"/><text x="50%" y="42" text-anchor="middle" font-family="Arial, sans-serif" font-size="30" font-weight="700" fill="#111827">CXL Microbenchmark Bandwidth</text><text x="50%" y="72" text-anchor="middle" font-family="Arial, sans-serif" font-size="16" fill="#475569">total bandwidth vs read ratio, 16 GiB random access, 10s per point</text><line x1="90" y1="1064" x2="126" y2="1064" stroke="#2563eb" stroke-width="4"/><circle cx="108" cy="1064" r="5" fill="#2563eb" stroke="#ffffff" stroke-width="1.5"/><text x="138" y="1069" font-family="Arial, sans-serif" font-size="16" fill="#1f2937">Local DRAM</text><line x1="340" y1="1064" x2="376" y2="1064" stroke="#dc2626" stroke-width="4"/><circle cx="358" cy="1064" r="5" fill="#dc2626" stroke="#ffffff" stroke-width="1.5"/><text x="388" y="1069" font-family="Arial, sans-serif" font-size="16" fill="#1f2937">CXL</text><line x1="590" y1="1064" x2="626" y2="1064" stroke="#16a34a" stroke-width="4"/><circle cx="608" cy="1064" r="5" fill="#16a34a" stroke="#ffffff" stroke-width="1.5"/><text x="638" y="1069" font-family="Arial, sans-serif" font-size="16" fill="#1f2937">Local + CXL</text><line x1="840" y1="1064" x2="876" y2="1064" stroke="#7c3aed" stroke-width="4"/><circle cx="858" cy="1064" r="5" fill="#7c3aed" stroke="#ffffff" stroke-width="1.5"/><text x="888" y="1069" font-family="Arial, sans-serif" font-size="16" fill="#1f2937">scx_cxl</text><rect x="90.0" y="100.0" width="697.5" height="263.3" rx="8" fill="#ffffff" stroke="#cbd5e1" stroke-width="1.5"/><text x="438.8" y="128.0" text-anchor="middle" font-family="Arial, sans-serif" font-size="20" font-weight="700" fill="#0f172a">4 threads</text><line x1="160.0" y1="144.0" x2="160.0" y2="305.3" stroke="#e5e7eb" stroke-width="1"/><text x="160.0" y="340.3" text-anchor="middle" font-family="Arial, sans-serif" font-size="12" fill="#64748b">0.0</text><line x1="281.1" y1="144.0" x2="281.1" y2="305.3" stroke="#e5e7eb" stroke-width="1"/><text x="281.1" y="340.3" text-anchor="middle" font-family="Arial, sans-serif" font-size="12" fill="#64748b">0.2</text><line x1="402.2" y1="144.0" x2="402.2" y2="305.3" stroke="#e5e7eb" stroke-width="1"/><text x="402.2" y="340.3" text-anchor="middle" font-family="Arial, sans-serif" font-size="12" fill="#64748b">0.4</text><line x1="523.3" y1="144.0" x2="523.3" y2="305.3" stroke="#e5e7eb" stroke-width="1"/><text x="523.3" y="340.3" text-anchor="middle" font-family="Arial, sans-serif" font-size="12" fill="#64748b">0.6</text><line x1="644.4" y1="144.0" x2="644.4" y2="305.3" stroke="#e5e7eb" stroke-width="1"/><text x="644.4" y="340.3" text-anchor="middle" font-family="Arial, sans-serif" font-size="12" fill="#64748b">0.8</text><line x1="765.5" y1="144.0" x2="765.5" y2="305.3" stroke="#e5e7eb" stroke-width="1"/><text x="765.5" y="340.3" text-anchor="middle" font-family="Arial, sans-serif" font-size="12" fill="#64748b">1.0</text><line x1="160.0" y1="305.3" x2="765.5" y2="305.3" stroke="#e5e7eb" stroke-width="1"/><text x="150.0" y="309.3" text-anchor="end" font-family="Arial, sans-serif" font-size="12" fill="#64748b">0k</text><line x1="160.0" y1="273.1" x2="765.5" y2="273.1" stroke="#e5e7eb" stroke-width="1"/><text x="150.0" y="277.1" text-anchor="end" font-family="Arial, sans-serif" font-size="12" fill="#64748b">10k</text><line x1="160.0" y1="240.8" x2="765.5" y2="240.8" stroke="#e5e7eb" stroke-width="1"/><text x="150.0" y="244.8" text-anchor="end" font-family="Arial, sans-serif" font-size="12" fill="#64748b">20k</text><line x1="160.0" y1="208.5" x2="765.5" y2="208.5" stroke="#e5e7eb" stroke-width="1"/><text x="150.0" y="212.5" text-anchor="end" font-family="Arial, sans-serif" font-size="12" fill="#64748b">30k</text><line x1="160.0" y1="176.3" x2="765.5" y2="176.3" stroke="#e5e7eb" stroke-width="1"/><text x="150.0" y="180.3" text-anchor="end" font-family="Arial, sans-serif" font-size="12" fill="#64748b">40k</text><line x1="160.0" y1="144.0" x2="765.5" y2="144.0" stroke="#e5e7eb" stroke-width="1"/><text x="150.0" y="148.0" text-anchor="end" font-family="Arial, sans-serif" font-size="12" fill="#64748b">50k</text><line x1="160.0" y1="144.0" x2="160.0" y2="305.3" stroke="#334155" stroke-width="1.5"/><line x1="160.0" y1="305.3" x2="765.5" y2="305.3" stroke="#334155" stroke-width="1.5"/><text x="438.8" y="357.3" text-anchor="middle" font-family="Arial, sans-serif" font-size="13" fill="#334155">read ratio</text><text x="110.0" y="231.7" text-anchor="middle" font-family="Arial, sans-serif" font-size="13" fill="#334155" transform="rotate(-90 110.0 231.7)">MB/s</text><polyline fill="none" stroke="#2563eb" stroke-width="3" points="160.0,256.1 250.8,256.1 311.4,249.5 371.9,249.1 432.5,249.2 462.8,240.9 493.0,240.7 553.6,240.0 614.1,229.4 674.7,228.9 735.2,229.5 765.5,216.4"/><circle cx="160.0" cy="256.1" r="4" fill="#2563eb" stroke="#ffffff" stroke-width="1.2"/><circle cx="250.8" cy="256.1" r="4" fill="#2563eb" stroke="#ffffff" stroke-width="1.2"/><circle cx="311.4" cy="249.5" r="4" fill="#2563eb" stroke="#ffffff" stroke-width="1.2"/><circle cx="371.9" cy="249.1" r="4" fill="#2563eb" stroke="#ffffff" stroke-width="1.2"/><circle cx="432.5" cy="249.2" r="4" fill="#2563eb" stroke="#ffffff" stroke-width="1.2"/><circle cx="462.8" cy="240.9" r="4" fill="#2563eb" stroke="#ffffff" stroke-width="1.2"/><circle cx="493.0" cy="240.7" r="4" fill="#2563eb" stroke="#ffffff" stroke-width="1.2"/><circle cx="553.6" cy="240.0" r="4" fill="#2563eb" stroke="#ffffff" stroke-width="1.2"/><circle cx="614.1" cy="229.4" r="4" fill="#2563eb" stroke="#ffffff" stroke-width="1.2"/><circle cx="674.7" cy="228.9" r="4" fill="#2563eb" stroke="#ffffff" stroke-width="1.2"/><circle cx="735.2" cy="229.5" r="4" fill="#2563eb" stroke="#ffffff" stroke-width="1.2"/><circle cx="765.5" cy="216.4" r="4" fill="#2563eb" stroke="#ffffff" stroke-width="1.2"/><polyline fill="none" stroke="#dc2626" stroke-width="3" points="160.0,267.9 250.8,267.8 311.4,264.8 371.9,264.8 432.5,264.7 462.8,260.8 493.0,260.9 553.6,260.9 614.1,255.8 674.7,255.8 735.2,255.8 765.5,250.8"/><circle cx="160.0" cy="267.9" r="4" fill="#dc2626" stroke="#ffffff" stroke-width="1.2"/><circle cx="250.8" cy="267.8" r="4" fill="#dc2626" stroke="#ffffff" stroke-width="1.2"/><circle cx="311.4" cy="264.8" r="4" fill="#dc2626" stroke="#ffffff" stroke-width="1.2"/><circle cx="371.9" cy="264.8" r="4" fill="#dc2626" stroke="#ffffff" stroke-width="1.2"/><circle cx="432.5" cy="264.7" r="4" fill="#dc2626" stroke="#ffffff" stroke-width="1.2"/><circle cx="462.8" cy="260.8" r="4" fill="#dc2626" stroke="#ffffff" stroke-width="1.2"/><circle cx="493.0" cy="260.9" r="4" fill="#dc2626" stroke="#ffffff" stroke-width="1.2"/><circle cx="553.6" cy="260.9" r="4" fill="#dc2626" stroke="#ffffff" stroke-width="1.2"/><circle cx="614.1" cy="255.8" r="4" fill="#dc2626" stroke="#ffffff" stroke-width="1.2"/><circle cx="674.7" cy="255.8" r="4" fill="#dc2626" stroke="#ffffff" stroke-width="1.2"/><circle cx="735.2" cy="255.8" r="4" fill="#dc2626" stroke="#ffffff" stroke-width="1.2"/><circle cx="765.5" cy="250.8" r="4" fill="#dc2626" stroke="#ffffff" stroke-width="1.2"/><polyline fill="none" stroke="#16a34a" stroke-width="3" points="160.0,247.4 250.8,247.5 311.4,242.6 371.9,242.5 432.5,242.5 462.8,236.8 493.0,236.8 553.6,237.0 614.1,233.4 674.7,233.5 735.2,233.3 765.5,229.9"/><circle cx="160.0" cy="247.4" r="4" fill="#16a34a" stroke="#ffffff" stroke-width="1.2"/><circle cx="250.8" cy="247.5" r="4" fill="#16a34a" stroke="#ffffff" stroke-width="1.2"/><circle cx="311.4" cy="242.6" r="4" fill="#16a34a" stroke="#ffffff" stroke-width="1.2"/><circle cx="371.9" cy="242.5" r="4" fill="#16a34a" stroke="#ffffff" stroke-width="1.2"/><circle cx="432.5" cy="242.5" r="4" fill="#16a34a" stroke="#ffffff" stroke-width="1.2"/><circle cx="462.8" cy="236.8" r="4" fill="#16a34a" stroke="#ffffff" stroke-width="1.2"/><circle cx="493.0" cy="236.8" r="4" fill="#16a34a" stroke="#ffffff" stroke-width="1.2"/><circle cx="553.6" cy="237.0" r="4" fill="#16a34a" stroke="#ffffff" stroke-width="1.2"/><circle cx="614.1" cy="233.4" r="4" fill="#16a34a" stroke="#ffffff" stroke-width="1.2"/><circle cx="674.7" cy="233.5" r="4" fill="#16a34a" stroke="#ffffff" stroke-width="1.2"/><circle cx="735.2" cy="233.3" r="4" fill="#16a34a" stroke="#ffffff" stroke-width="1.2"/><circle cx="765.5" cy="229.9" r="4" fill="#16a34a" stroke="#ffffff" stroke-width="1.2"/><polyline fill="none" stroke="#7c3aed" stroke-width="3" points="160.0,249.6 250.8,247.9 311.4,245.9 371.9,245.5 432.5,246.3 462.8,238.8 493.0,244.7 553.6,246.3 614.1,236.8 674.7,240.1 735.2,237.9 765.5,234.4"/><circle cx="160.0" cy="249.6" r="4" fill="#7c3aed" stroke="#ffffff" stroke-width="1.2"/><circle cx="250.8" cy="247.9" r="4" fill="#7c3aed" stroke="#ffffff" stroke-width="1.2"/><circle cx="311.4" cy="245.9" r="4" fill="#7c3aed" stroke="#ffffff" stroke-width="1.2"/><circle cx="371.9" cy="245.5" r="4" fill="#7c3aed" stroke="#ffffff" stroke-width="1.2"/><circle cx="432.5" cy="246.3" r="4" fill="#7c3aed" stroke="#ffffff" stroke-width="1.2"/><circle cx="462.8" cy="238.8" r="4" fill="#7c3aed" stroke="#ffffff" stroke-width="1.2"/><circle cx="493.0" cy="244.7" r="4" fill="#7c3aed" stroke="#ffffff" stroke-width="1.2"/><circle cx="553.6" cy="246.3" r="4" fill="#7c3aed" stroke="#ffffff" stroke-width="1.2"/><circle cx="614.1" cy="236.8" r="4" fill="#7c3aed" stroke="#ffffff" stroke-width="1.2"/><circle cx="674.7" cy="240.1" r="4" fill="#7c3aed" stroke="#ffffff" stroke-width="1.2"/><circle cx="735.2" cy="237.9" r="4" fill="#7c3aed" stroke="#ffffff" stroke-width="1.2"/><circle cx="765.5" cy="234.4" r="4" fill="#7c3aed" stroke="#ffffff" stroke-width="1.2"/><rect x="832.5" y="100.0" width="697.5" height="263.3" rx="8" fill="#ffffff" stroke="#cbd5e1" stroke-width="1.5"/><text x="1181.2" y="128.0" text-anchor="middle" font-family="Arial, sans-serif" font-size="20" font-weight="700" fill="#0f172a">16 threads</text><line x1="902.5" y1="144.0" x2="902.5" y2="305.3" stroke="#e5e7eb" stroke-width="1"/><text x="902.5" y="340.3" text-anchor="middle" font-family="Arial, sans-serif" font-size="12" fill="#64748b">0.0</text><line x1="1023.6" y1="144.0" x2="1023.6" y2="305.3" stroke="#e5e7eb" stroke-width="1"/><text x="1023.6" y="340.3" text-anchor="middle" font-family="Arial, sans-serif" font-size="12" fill="#64748b">0.2</text><line x1="1144.7" y1="144.0" x2="1144.7" y2="305.3" stroke="#e5e7eb" stroke-width="1"/><text x="1144.7" y="340.3" text-anchor="middle" font-family="Arial, sans-serif" font-size="12" fill="#64748b">0.4</text><line x1="1265.8" y1="144.0" x2="1265.8" y2="305.3" stroke="#e5e7eb" stroke-width="1"/><text x="1265.8" y="340.3" text-anchor="middle" font-family="Arial, sans-serif" font-size="12" fill="#64748b">0.6</text><line x1="1386.9" y1="144.0" x2="1386.9" y2="305.3" stroke="#e5e7eb" stroke-width="1"/><text x="1386.9" y="340.3" text-anchor="middle" font-family="Arial, sans-serif" font-size="12" fill="#64748b">0.8</text><line x1="1508.0" y1="144.0" x2="1508.0" y2="305.3" stroke="#e5e7eb" stroke-width="1"/><text x="1508.0" y="340.3" text-anchor="middle" font-family="Arial, sans-serif" font-size="12" fill="#64748b">1.0</text><line x1="902.5" y1="305.3" x2="1508.0" y2="305.3" stroke="#e5e7eb" stroke-width="1"/><text x="892.5" y="309.3" text-anchor="end" font-family="Arial, sans-serif" font-size="12" fill="#64748b">0k</text><line x1="902.5" y1="273.1" x2="1508.0" y2="273.1" stroke="#e5e7eb" stroke-width="1"/><text x="892.5" y="277.1" text-anchor="end" font-family="Arial, sans-serif" font-size="12" fill="#64748b">10k</text><line x1="902.5" y1="240.8" x2="1508.0" y2="240.8" stroke="#e5e7eb" stroke-width="1"/><text x="892.5" y="244.8" text-anchor="end" font-family="Arial, sans-serif" font-size="12" fill="#64748b">20k</text><line x1="902.5" y1="208.5" x2="1508.0" y2="208.5" stroke="#e5e7eb" stroke-width="1"/><text x="892.5" y="212.5" text-anchor="end" font-family="Arial, sans-serif" font-size="12" fill="#64748b">30k</text><line x1="902.5" y1="176.3" x2="1508.0" y2="176.3" stroke="#e5e7eb" stroke-width="1"/><text x="892.5" y="180.3" text-anchor="end" font-family="Arial, sans-serif" font-size="12" fill="#64748b">40k</text><line x1="902.5" y1="144.0" x2="1508.0" y2="144.0" stroke="#e5e7eb" stroke-width="1"/><text x="892.5" y="148.0" text-anchor="end" font-family="Arial, sans-serif" font-size="12" fill="#64748b">50k</text><line x1="902.5" y1="144.0" x2="902.5" y2="305.3" stroke="#334155" stroke-width="1.5"/><line x1="902.5" y1="305.3" x2="1508.0" y2="305.3" stroke="#334155" stroke-width="1.5"/><text x="1181.2" y="357.3" text-anchor="middle" font-family="Arial, sans-serif" font-size="13" fill="#334155">read ratio</text><text x="852.5" y="231.7" text-anchor="middle" font-family="Arial, sans-serif" font-size="13" fill="#334155" transform="rotate(-90 852.5 231.7)">MB/s</text><polyline fill="none" stroke="#2563eb" stroke-width="3" points="902.5,256.4 993.3,252.8 1053.9,247.3 1114.4,245.5 1175.0,240.6 1205.2,236.6 1235.5,234.4 1296.1,233.0 1356.6,220.9 1417.2,212.9 1477.7,205.7 1508.0,191.6"/><circle cx="902.5" cy="256.4" r="4" fill="#2563eb" stroke="#ffffff" stroke-width="1.2"/><circle cx="993.3" cy="252.8" r="4" fill="#2563eb" stroke="#ffffff" stroke-width="1.2"/><circle cx="1053.9" cy="247.3" r="4" fill="#2563eb" stroke="#ffffff" stroke-width="1.2"/><circle cx="1114.4" cy="245.5" r="4" fill="#2563eb" stroke="#ffffff" stroke-width="1.2"/><circle cx="1175.0" cy="240.6" r="4" fill="#2563eb" stroke="#ffffff" stroke-width="1.2"/><circle cx="1205.2" cy="236.6" r="4" fill="#2563eb" stroke="#ffffff" stroke-width="1.2"/><circle cx="1235.5" cy="234.4" r="4" fill="#2563eb" stroke="#ffffff" stroke-width="1.2"/><circle cx="1296.1" cy="233.0" r="4" fill="#2563eb" stroke="#ffffff" stroke-width="1.2"/><circle cx="1356.6" cy="220.9" r="4" fill="#2563eb" stroke="#ffffff" stroke-width="1.2"/><circle cx="1417.2" cy="212.9" r="4" fill="#2563eb" stroke="#ffffff" stroke-width="1.2"/><circle cx="1477.7" cy="205.7" r="4" fill="#2563eb" stroke="#ffffff" stroke-width="1.2"/><circle cx="1508.0" cy="191.6" r="4" fill="#2563eb" stroke="#ffffff" stroke-width="1.2"/><polyline fill="none" stroke="#dc2626" stroke-width="3" points="902.5,255.9 993.3,252.5 1053.9,248.5 1114.4,246.5 1175.0,242.9 1205.2,241.7 1235.5,241.8 1296.1,240.4 1356.6,239.8 1417.2,238.5 1477.7,234.7 1508.0,232.3"/><circle cx="902.5" cy="255.9" r="4" fill="#dc2626" stroke="#ffffff" stroke-width="1.2"/><circle cx="993.3" cy="252.5" r="4" fill="#dc2626" stroke="#ffffff" stroke-width="1.2"/><circle cx="1053.9" cy="248.5" r="4" fill="#dc2626" stroke="#ffffff" stroke-width="1.2"/><circle cx="1114.4" cy="246.5" r="4" fill="#dc2626" stroke="#ffffff" stroke-width="1.2"/><circle cx="1175.0" cy="242.9" r="4" fill="#dc2626" stroke="#ffffff" stroke-width="1.2"/><circle cx="1205.2" cy="241.7" r="4" fill="#dc2626" stroke="#ffffff" stroke-width="1.2"/><circle cx="1235.5" cy="241.8" r="4" fill="#dc2626" stroke="#ffffff" stroke-width="1.2"/><circle cx="1296.1" cy="240.4" r="4" fill="#dc2626" stroke="#ffffff" stroke-width="1.2"/><circle cx="1356.6" cy="239.8" r="4" fill="#dc2626" stroke="#ffffff" stroke-width="1.2"/><circle cx="1417.2" cy="238.5" r="4" fill="#dc2626" stroke="#ffffff" stroke-width="1.2"/><circle cx="1477.7" cy="234.7" r="4" fill="#dc2626" stroke="#ffffff" stroke-width="1.2"/><circle cx="1508.0" cy="232.3" r="4" fill="#dc2626" stroke="#ffffff" stroke-width="1.2"/><polyline fill="none" stroke="#16a34a" stroke-width="3" points="902.5,211.8 993.3,206.3 1053.9,199.3 1114.4,196.3 1175.0,189.3 1205.2,188.1 1235.5,186.6 1296.1,182.4 1356.6,177.3 1417.2,173.5 1477.7,166.9 1508.0,162.3"/><circle cx="902.5" cy="211.8" r="4" fill="#16a34a" stroke="#ffffff" stroke-width="1.2"/><circle cx="993.3" cy="206.3" r="4" fill="#16a34a" stroke="#ffffff" stroke-width="1.2"/><circle cx="1053.9" cy="199.3" r="4" fill="#16a34a" stroke="#ffffff" stroke-width="1.2"/><circle cx="1114.4" cy="196.3" r="4" fill="#16a34a" stroke="#ffffff" stroke-width="1.2"/><circle cx="1175.0" cy="189.3" r="4" fill="#16a34a" stroke="#ffffff" stroke-width="1.2"/><circle cx="1205.2" cy="188.1" r="4" fill="#16a34a" stroke="#ffffff" stroke-width="1.2"/><circle cx="1235.5" cy="186.6" r="4" fill="#16a34a" stroke="#ffffff" stroke-width="1.2"/><circle cx="1296.1" cy="182.4" r="4" fill="#16a34a" stroke="#ffffff" stroke-width="1.2"/><circle cx="1356.6" cy="177.3" r="4" fill="#16a34a" stroke="#ffffff" stroke-width="1.2"/><circle cx="1417.2" cy="173.5" r="4" fill="#16a34a" stroke="#ffffff" stroke-width="1.2"/><circle cx="1477.7" cy="166.9" r="4" fill="#16a34a" stroke="#ffffff" stroke-width="1.2"/><circle cx="1508.0" cy="162.3" r="4" fill="#16a34a" stroke="#ffffff" stroke-width="1.2"/><polyline fill="none" stroke="#7c3aed" stroke-width="3" points="902.5,219.9 993.3,211.2 1053.9,204.9 1114.4,204.0 1175.0,201.8 1205.2,198.2 1235.5,195.7 1296.1,188.8 1356.6,187.2 1417.2,180.3 1477.7,172.8 1508.0,162.7"/><circle cx="902.5" cy="219.9" r="4" fill="#7c3aed" stroke="#ffffff" stroke-width="1.2"/><circle cx="993.3" cy="211.2" r="4" fill="#7c3aed" stroke="#ffffff" stroke-width="1.2"/><circle cx="1053.9" cy="204.9" r="4" fill="#7c3aed" stroke="#ffffff" stroke-width="1.2"/><circle cx="1114.4" cy="204.0" r="4" fill="#7c3aed" stroke="#ffffff" stroke-width="1.2"/><circle cx="1175.0" cy="201.8" r="4" fill="#7c3aed" stroke="#ffffff" stroke-width="1.2"/><circle cx="1205.2" cy="198.2" r="4" fill="#7c3aed" stroke="#ffffff" stroke-width="1.2"/><circle cx="1235.5" cy="195.7" r="4" fill="#7c3aed" stroke="#ffffff" stroke-width="1.2"/><circle cx="1296.1" cy="188.8" r="4" fill="#7c3aed" stroke="#ffffff" stroke-width="1.2"/><circle cx="1356.6" cy="187.2" r="4" fill="#7c3aed" stroke="#ffffff" stroke-width="1.2"/><circle cx="1417.2" cy="180.3" r="4" fill="#7c3aed" stroke="#ffffff" stroke-width="1.2"/><circle cx="1477.7" cy="172.8" r="4" fill="#7c3aed" stroke="#ffffff" stroke-width="1.2"/><circle cx="1508.0" cy="162.7" r="4" fill="#7c3aed" stroke="#ffffff" stroke-width="1.2"/><rect x="90.0" y="418.3" width="697.5" height="263.3" rx="8" fill="#ffffff" stroke="#cbd5e1" stroke-width="1.5"/><text x="438.8" y="446.3" text-anchor="middle" font-family="Arial, sans-serif" font-size="20" font-weight="700" fill="#0f172a">64 threads</text><line x1="160.0" y1="462.3" x2="160.0" y2="623.7" stroke="#e5e7eb" stroke-width="1"/><text x="160.0" y="658.7" text-anchor="middle" font-family="Arial, sans-serif" font-size="12" fill="#64748b">0.0</text><line x1="281.1" y1="462.3" x2="281.1" y2="623.7" stroke="#e5e7eb" stroke-width="1"/><text x="281.1" y="658.7" text-anchor="middle" font-family="Arial, sans-serif" font-size="12" fill="#64748b">0.2</text><line x1="402.2" y1="462.3" x2="402.2" y2="623.7" stroke="#e5e7eb" stroke-width="1"/><text x="402.2" y="658.7" text-anchor="middle" font-family="Arial, sans-serif" font-size="12" fill="#64748b">0.4</text><line x1="523.3" y1="462.3" x2="523.3" y2="623.7" stroke="#e5e7eb" stroke-width="1"/><text x="523.3" y="658.7" text-anchor="middle" font-family="Arial, sans-serif" font-size="12" fill="#64748b">0.6</text><line x1="644.4" y1="462.3" x2="644.4" y2="623.7" stroke="#e5e7eb" stroke-width="1"/><text x="644.4" y="658.7" text-anchor="middle" font-family="Arial, sans-serif" font-size="12" fill="#64748b">0.8</text><line x1="765.5" y1="462.3" x2="765.5" y2="623.7" stroke="#e5e7eb" stroke-width="1"/><text x="765.5" y="658.7" text-anchor="middle" font-family="Arial, sans-serif" font-size="12" fill="#64748b">1.0</text><line x1="160.0" y1="623.7" x2="765.5" y2="623.7" stroke="#e5e7eb" stroke-width="1"/><text x="150.0" y="627.7" text-anchor="end" font-family="Arial, sans-serif" font-size="12" fill="#64748b">0k</text><line x1="160.0" y1="591.4" x2="765.5" y2="591.4" stroke="#e5e7eb" stroke-width="1"/><text x="150.0" y="595.4" text-anchor="end" font-family="Arial, sans-serif" font-size="12" fill="#64748b">10k</text><line x1="160.0" y1="559.1" x2="765.5" y2="559.1" stroke="#e5e7eb" stroke-width="1"/><text x="150.0" y="563.1" text-anchor="end" font-family="Arial, sans-serif" font-size="12" fill="#64748b">20k</text><line x1="160.0" y1="526.9" x2="765.5" y2="526.9" stroke="#e5e7eb" stroke-width="1"/><text x="150.0" y="530.9" text-anchor="end" font-family="Arial, sans-serif" font-size="12" fill="#64748b">30k</text><line x1="160.0" y1="494.6" x2="765.5" y2="494.6" stroke="#e5e7eb" stroke-width="1"/><text x="150.0" y="498.6" text-anchor="end" font-family="Arial, sans-serif" font-size="12" fill="#64748b">40k</text><line x1="160.0" y1="462.3" x2="765.5" y2="462.3" stroke="#e5e7eb" stroke-width="1"/><text x="150.0" y="466.3" text-anchor="end" font-family="Arial, sans-serif" font-size="12" fill="#64748b">50k</text><line x1="160.0" y1="462.3" x2="160.0" y2="623.7" stroke="#334155" stroke-width="1.5"/><line x1="160.0" y1="623.7" x2="765.5" y2="623.7" stroke="#334155" stroke-width="1.5"/><text x="438.8" y="675.7" text-anchor="middle" font-family="Arial, sans-serif" font-size="13" fill="#334155">read ratio</text><text x="110.0" y="550.0" text-anchor="middle" font-family="Arial, sans-serif" font-size="13" fill="#334155" transform="rotate(-90 110.0 550.0)">MB/s</text><polyline fill="none" stroke="#2563eb" stroke-width="3" points="160.0,575.7 250.8,571.9 311.4,567.9 371.9,564.9 432.5,558.1 462.8,555.6 493.0,554.0 553.6,545.3 614.1,532.9 674.7,536.2 735.2,522.7 765.5,511.3"/><circle cx="160.0" cy="575.7" r="4" fill="#2563eb" stroke="#ffffff" stroke-width="1.2"/><circle cx="250.8" cy="571.9" r="4" fill="#2563eb" stroke="#ffffff" stroke-width="1.2"/><circle cx="311.4" cy="567.9" r="4" fill="#2563eb" stroke="#ffffff" stroke-width="1.2"/><circle cx="371.9" cy="564.9" r="4" fill="#2563eb" stroke="#ffffff" stroke-width="1.2"/><circle cx="432.5" cy="558.1" r="4" fill="#2563eb" stroke="#ffffff" stroke-width="1.2"/><circle cx="462.8" cy="555.6" r="4" fill="#2563eb" stroke="#ffffff" stroke-width="1.2"/><circle cx="493.0" cy="554.0" r="4" fill="#2563eb" stroke="#ffffff" stroke-width="1.2"/><circle cx="553.6" cy="545.3" r="4" fill="#2563eb" stroke="#ffffff" stroke-width="1.2"/><circle cx="614.1" cy="532.9" r="4" fill="#2563eb" stroke="#ffffff" stroke-width="1.2"/><circle cx="674.7" cy="536.2" r="4" fill="#2563eb" stroke="#ffffff" stroke-width="1.2"/><circle cx="735.2" cy="522.7" r="4" fill="#2563eb" stroke="#ffffff" stroke-width="1.2"/><circle cx="765.5" cy="511.3" r="4" fill="#2563eb" stroke="#ffffff" stroke-width="1.2"/><polyline fill="none" stroke="#dc2626" stroke-width="3" points="160.0,574.1 250.8,569.3 311.4,566.0 371.9,563.0 432.5,560.6 462.8,559.5 493.0,559.0 553.6,558.2 614.1,557.3 674.7,556.0 735.2,554.7 765.5,553.4"/><circle cx="160.0" cy="574.1" r="4" fill="#dc2626" stroke="#ffffff" stroke-width="1.2"/><circle cx="250.8" cy="569.3" r="4" fill="#dc2626" stroke="#ffffff" stroke-width="1.2"/><circle cx="311.4" cy="566.0" r="4" fill="#dc2626" stroke="#ffffff" stroke-width="1.2"/><circle cx="371.9" cy="563.0" r="4" fill="#dc2626" stroke="#ffffff" stroke-width="1.2"/><circle cx="432.5" cy="560.6" r="4" fill="#dc2626" stroke="#ffffff" stroke-width="1.2"/><circle cx="462.8" cy="559.5" r="4" fill="#dc2626" stroke="#ffffff" stroke-width="1.2"/><circle cx="493.0" cy="559.0" r="4" fill="#dc2626" stroke="#ffffff" stroke-width="1.2"/><circle cx="553.6" cy="558.2" r="4" fill="#dc2626" stroke="#ffffff" stroke-width="1.2"/><circle cx="614.1" cy="557.3" r="4" fill="#dc2626" stroke="#ffffff" stroke-width="1.2"/><circle cx="674.7" cy="556.0" r="4" fill="#dc2626" stroke="#ffffff" stroke-width="1.2"/><circle cx="735.2" cy="554.7" r="4" fill="#dc2626" stroke="#ffffff" stroke-width="1.2"/><circle cx="765.5" cy="553.4" r="4" fill="#dc2626" stroke="#ffffff" stroke-width="1.2"/><polyline fill="none" stroke="#16a34a" stroke-width="3" points="160.0,528.6 250.8,519.8 311.4,513.6 371.9,507.2 432.5,501.6 462.8,498.2 493.0,495.4 553.6,495.0 614.1,490.9 674.7,490.6 735.2,487.4 765.5,482.5"/><circle cx="160.0" cy="528.6" r="4" fill="#16a34a" stroke="#ffffff" stroke-width="1.2"/><circle cx="250.8" cy="519.8" r="4" fill="#16a34a" stroke="#ffffff" stroke-width="1.2"/><circle cx="311.4" cy="513.6" r="4" fill="#16a34a" stroke="#ffffff" stroke-width="1.2"/><circle cx="371.9" cy="507.2" r="4" fill="#16a34a" stroke="#ffffff" stroke-width="1.2"/><circle cx="432.5" cy="501.6" r="4" fill="#16a34a" stroke="#ffffff" stroke-width="1.2"/><circle cx="462.8" cy="498.2" r="4" fill="#16a34a" stroke="#ffffff" stroke-width="1.2"/><circle cx="493.0" cy="495.4" r="4" fill="#16a34a" stroke="#ffffff" stroke-width="1.2"/><circle cx="553.6" cy="495.0" r="4" fill="#16a34a" stroke="#ffffff" stroke-width="1.2"/><circle cx="614.1" cy="490.9" r="4" fill="#16a34a" stroke="#ffffff" stroke-width="1.2"/><circle cx="674.7" cy="490.6" r="4" fill="#16a34a" stroke="#ffffff" stroke-width="1.2"/><circle cx="735.2" cy="487.4" r="4" fill="#16a34a" stroke="#ffffff" stroke-width="1.2"/><circle cx="765.5" cy="482.5" r="4" fill="#16a34a" stroke="#ffffff" stroke-width="1.2"/><polyline fill="none" stroke="#7c3aed" stroke-width="3" points="160.0,526.0 250.8,523.2 311.4,515.0 371.9,511.9 432.5,506.7 462.8,502.6 493.0,502.1 553.6,497.1 614.1,499.4 674.7,493.3 735.2,490.2 765.5,484.2"/><circle cx="160.0" cy="526.0" r="4" fill="#7c3aed" stroke="#ffffff" stroke-width="1.2"/><circle cx="250.8" cy="523.2" r="4" fill="#7c3aed" stroke="#ffffff" stroke-width="1.2"/><circle cx="311.4" cy="515.0" r="4" fill="#7c3aed" stroke="#ffffff" stroke-width="1.2"/><circle cx="371.9" cy="511.9" r="4" fill="#7c3aed" stroke="#ffffff" stroke-width="1.2"/><circle cx="432.5" cy="506.7" r="4" fill="#7c3aed" stroke="#ffffff" stroke-width="1.2"/><circle cx="462.8" cy="502.6" r="4" fill="#7c3aed" stroke="#ffffff" stroke-width="1.2"/><circle cx="493.0" cy="502.1" r="4" fill="#7c3aed" stroke="#ffffff" stroke-width="1.2"/><circle cx="553.6" cy="497.1" r="4" fill="#7c3aed" stroke="#ffffff" stroke-width="1.2"/><circle cx="614.1" cy="499.4" r="4" fill="#7c3aed" stroke="#ffffff" stroke-width="1.2"/><circle cx="674.7" cy="493.3" r="4" fill="#7c3aed" stroke="#ffffff" stroke-width="1.2"/><circle cx="735.2" cy="490.2" r="4" fill="#7c3aed" stroke="#ffffff" stroke-width="1.2"/><circle cx="765.5" cy="484.2" r="4" fill="#7c3aed" stroke="#ffffff" stroke-width="1.2"/><rect x="832.5" y="418.3" width="697.5" height="263.3" rx="8" fill="#ffffff" stroke="#cbd5e1" stroke-width="1.5"/><text x="1181.2" y="446.3" text-anchor="middle" font-family="Arial, sans-serif" font-size="20" font-weight="700" fill="#0f172a">172 threads</text><line x1="902.5" y1="462.3" x2="902.5" y2="623.7" stroke="#e5e7eb" stroke-width="1"/><text x="902.5" y="658.7" text-anchor="middle" font-family="Arial, sans-serif" font-size="12" fill="#64748b">0.0</text><line x1="1023.6" y1="462.3" x2="1023.6" y2="623.7" stroke="#e5e7eb" stroke-width="1"/><text x="1023.6" y="658.7" text-anchor="middle" font-family="Arial, sans-serif" font-size="12" fill="#64748b">0.2</text><line x1="1144.7" y1="462.3" x2="1144.7" y2="623.7" stroke="#e5e7eb" stroke-width="1"/><text x="1144.7" y="658.7" text-anchor="middle" font-family="Arial, sans-serif" font-size="12" fill="#64748b">0.4</text><line x1="1265.8" y1="462.3" x2="1265.8" y2="623.7" stroke="#e5e7eb" stroke-width="1"/><text x="1265.8" y="658.7" text-anchor="middle" font-family="Arial, sans-serif" font-size="12" fill="#64748b">0.6</text><line x1="1386.9" y1="462.3" x2="1386.9" y2="623.7" stroke="#e5e7eb" stroke-width="1"/><text x="1386.9" y="658.7" text-anchor="middle" font-family="Arial, sans-serif" font-size="12" fill="#64748b">0.8</text><line x1="1508.0" y1="462.3" x2="1508.0" y2="623.7" stroke="#e5e7eb" stroke-width="1"/><text x="1508.0" y="658.7" text-anchor="middle" font-family="Arial, sans-serif" font-size="12" fill="#64748b">1.0</text><line x1="902.5" y1="623.7" x2="1508.0" y2="623.7" stroke="#e5e7eb" stroke-width="1"/><text x="892.5" y="627.7" text-anchor="end" font-family="Arial, sans-serif" font-size="12" fill="#64748b">0k</text><line x1="902.5" y1="591.4" x2="1508.0" y2="591.4" stroke="#e5e7eb" stroke-width="1"/><text x="892.5" y="595.4" text-anchor="end" font-family="Arial, sans-serif" font-size="12" fill="#64748b">10k</text><line x1="902.5" y1="559.1" x2="1508.0" y2="559.1" stroke="#e5e7eb" stroke-width="1"/><text x="892.5" y="563.1" text-anchor="end" font-family="Arial, sans-serif" font-size="12" fill="#64748b">20k</text><line x1="902.5" y1="526.9" x2="1508.0" y2="526.9" stroke="#e5e7eb" stroke-width="1"/><text x="892.5" y="530.9" text-anchor="end" font-family="Arial, sans-serif" font-size="12" fill="#64748b">30k</text><line x1="902.5" y1="494.6" x2="1508.0" y2="494.6" stroke="#e5e7eb" stroke-width="1"/><text x="892.5" y="498.6" text-anchor="end" font-family="Arial, sans-serif" font-size="12" fill="#64748b">40k</text><line x1="902.5" y1="462.3" x2="1508.0" y2="462.3" stroke="#e5e7eb" stroke-width="1"/><text x="892.5" y="466.3" text-anchor="end" font-family="Arial, sans-serif" font-size="12" fill="#64748b">50k</text><line x1="902.5" y1="462.3" x2="902.5" y2="623.7" stroke="#334155" stroke-width="1.5"/><line x1="902.5" y1="623.7" x2="1508.0" y2="623.7" stroke="#334155" stroke-width="1.5"/><text x="1181.2" y="675.7" text-anchor="middle" font-family="Arial, sans-serif" font-size="13" fill="#334155">read ratio</text><text x="852.5" y="550.0" text-anchor="middle" font-family="Arial, sans-serif" font-size="13" fill="#334155" transform="rotate(-90 852.5 550.0)">MB/s</text><polyline fill="none" stroke="#2563eb" stroke-width="3" points="902.5,574.8 993.3,570.5 1053.9,566.5 1114.4,557.3 1175.0,558.2 1205.2,553.1 1235.5,552.0 1296.1,547.4 1356.6,535.5 1417.2,533.6 1477.7,522.7 1508.0,509.7"/><circle cx="902.5" cy="574.8" r="4" fill="#2563eb" stroke="#ffffff" stroke-width="1.2"/><circle cx="993.3" cy="570.5" r="4" fill="#2563eb" stroke="#ffffff" stroke-width="1.2"/><circle cx="1053.9" cy="566.5" r="4" fill="#2563eb" stroke="#ffffff" stroke-width="1.2"/><circle cx="1114.4" cy="557.3" r="4" fill="#2563eb" stroke="#ffffff" stroke-width="1.2"/><circle cx="1175.0" cy="558.2" r="4" fill="#2563eb" stroke="#ffffff" stroke-width="1.2"/><circle cx="1205.2" cy="553.1" r="4" fill="#2563eb" stroke="#ffffff" stroke-width="1.2"/><circle cx="1235.5" cy="552.0" r="4" fill="#2563eb" stroke="#ffffff" stroke-width="1.2"/><circle cx="1296.1" cy="547.4" r="4" fill="#2563eb" stroke="#ffffff" stroke-width="1.2"/><circle cx="1356.6" cy="535.5" r="4" fill="#2563eb" stroke="#ffffff" stroke-width="1.2"/><circle cx="1417.2" cy="533.6" r="4" fill="#2563eb" stroke="#ffffff" stroke-width="1.2"/><circle cx="1477.7" cy="522.7" r="4" fill="#2563eb" stroke="#ffffff" stroke-width="1.2"/><circle cx="1508.0" cy="509.7" r="4" fill="#2563eb" stroke="#ffffff" stroke-width="1.2"/><polyline fill="none" stroke="#dc2626" stroke-width="3" points="902.5,573.0 993.3,567.9 1053.9,565.0 1114.4,561.8 1175.0,559.4 1205.2,558.3 1235.5,558.0 1296.1,557.1 1356.6,556.4 1417.2,554.9 1477.7,553.3 1508.0,551.7"/><circle cx="902.5" cy="573.0" r="4" fill="#dc2626" stroke="#ffffff" stroke-width="1.2"/><circle cx="993.3" cy="567.9" r="4" fill="#dc2626" stroke="#ffffff" stroke-width="1.2"/><circle cx="1053.9" cy="565.0" r="4" fill="#dc2626" stroke="#ffffff" stroke-width="1.2"/><circle cx="1114.4" cy="561.8" r="4" fill="#dc2626" stroke="#ffffff" stroke-width="1.2"/><circle cx="1175.0" cy="559.4" r="4" fill="#dc2626" stroke="#ffffff" stroke-width="1.2"/><circle cx="1205.2" cy="558.3" r="4" fill="#dc2626" stroke="#ffffff" stroke-width="1.2"/><circle cx="1235.5" cy="558.0" r="4" fill="#dc2626" stroke="#ffffff" stroke-width="1.2"/><circle cx="1296.1" cy="557.1" r="4" fill="#dc2626" stroke="#ffffff" stroke-width="1.2"/><circle cx="1356.6" cy="556.4" r="4" fill="#dc2626" stroke="#ffffff" stroke-width="1.2"/><circle cx="1417.2" cy="554.9" r="4" fill="#dc2626" stroke="#ffffff" stroke-width="1.2"/><circle cx="1477.7" cy="553.3" r="4" fill="#dc2626" stroke="#ffffff" stroke-width="1.2"/><circle cx="1508.0" cy="551.7" r="4" fill="#dc2626" stroke="#ffffff" stroke-width="1.2"/><polyline fill="none" stroke="#16a34a" stroke-width="3" points="902.5,525.5 993.3,519.1 1053.9,509.2 1114.4,506.2 1175.0,499.6 1205.2,498.2 1235.5,495.5 1296.1,491.8 1356.6,490.9 1417.2,487.7 1477.7,485.3 1508.0,481.7"/><circle cx="902.5" cy="525.5" r="4" fill="#16a34a" stroke="#ffffff" stroke-width="1.2"/><circle cx="993.3" cy="519.1" r="4" fill="#16a34a" stroke="#ffffff" stroke-width="1.2"/><circle cx="1053.9" cy="509.2" r="4" fill="#16a34a" stroke="#ffffff" stroke-width="1.2"/><circle cx="1114.4" cy="506.2" r="4" fill="#16a34a" stroke="#ffffff" stroke-width="1.2"/><circle cx="1175.0" cy="499.6" r="4" fill="#16a34a" stroke="#ffffff" stroke-width="1.2"/><circle cx="1205.2" cy="498.2" r="4" fill="#16a34a" stroke="#ffffff" stroke-width="1.2"/><circle cx="1235.5" cy="495.5" r="4" fill="#16a34a" stroke="#ffffff" stroke-width="1.2"/><circle cx="1296.1" cy="491.8" r="4" fill="#16a34a" stroke="#ffffff" stroke-width="1.2"/><circle cx="1356.6" cy="490.9" r="4" fill="#16a34a" stroke="#ffffff" stroke-width="1.2"/><circle cx="1417.2" cy="487.7" r="4" fill="#16a34a" stroke="#ffffff" stroke-width="1.2"/><circle cx="1477.7" cy="485.3" r="4" fill="#16a34a" stroke="#ffffff" stroke-width="1.2"/><circle cx="1508.0" cy="481.7" r="4" fill="#16a34a" stroke="#ffffff" stroke-width="1.2"/><polyline fill="none" stroke="#7c3aed" stroke-width="3" points="902.5,529.1 993.3,520.4 1053.9,516.4 1114.4,511.8 1175.0,507.5 1205.2,506.7 1235.5,503.0 1296.1,496.8 1356.6,499.7 1417.2,490.8 1477.7,486.6 1508.0,487.3"/><circle cx="902.5" cy="529.1" r="4" fill="#7c3aed" stroke="#ffffff" stroke-width="1.2"/><circle cx="993.3" cy="520.4" r="4" fill="#7c3aed" stroke="#ffffff" stroke-width="1.2"/><circle cx="1053.9" cy="516.4" r="4" fill="#7c3aed" stroke="#ffffff" stroke-width="1.2"/><circle cx="1114.4" cy="511.8" r="4" fill="#7c3aed" stroke="#ffffff" stroke-width="1.2"/><circle cx="1175.0" cy="507.5" r="4" fill="#7c3aed" stroke="#ffffff" stroke-width="1.2"/><circle cx="1205.2" cy="506.7" r="4" fill="#7c3aed" stroke="#ffffff" stroke-width="1.2"/><circle cx="1235.5" cy="503.0" r="4" fill="#7c3aed" stroke="#ffffff" stroke-width="1.2"/><circle cx="1296.1" cy="496.8" r="4" fill="#7c3aed" stroke="#ffffff" stroke-width="1.2"/><circle cx="1356.6" cy="499.7" r="4" fill="#7c3aed" stroke="#ffffff" stroke-width="1.2"/><circle cx="1417.2" cy="490.8" r="4" fill="#7c3aed" stroke="#ffffff" stroke-width="1.2"/><circle cx="1477.7" cy="486.6" r="4" fill="#7c3aed" stroke="#ffffff" stroke-width="1.2"/><circle cx="1508.0" cy="487.3" r="4" fill="#7c3aed" stroke="#ffffff" stroke-width="1.2"/><rect x="90.0" y="736.7" width="697.5" height="263.3" rx="8" fill="#ffffff" stroke="#cbd5e1" stroke-width="1.5"/><text x="438.8" y="764.7" text-anchor="middle" font-family="Arial, sans-serif" font-size="20" font-weight="700" fill="#0f172a">256 threads</text><line x1="160.0" y1="780.7" x2="160.0" y2="942.0" stroke="#e5e7eb" stroke-width="1"/><text x="160.0" y="977.0" text-anchor="middle" font-family="Arial, sans-serif" font-size="12" fill="#64748b">0.0</text><line x1="281.1" y1="780.7" x2="281.1" y2="942.0" stroke="#e5e7eb" stroke-width="1"/><text x="281.1" y="977.0" text-anchor="middle" font-family="Arial, sans-serif" font-size="12" fill="#64748b">0.2</text><line x1="402.2" y1="780.7" x2="402.2" y2="942.0" stroke="#e5e7eb" stroke-width="1"/><text x="402.2" y="977.0" text-anchor="middle" font-family="Arial, sans-serif" font-size="12" fill="#64748b">0.4</text><line x1="523.3" y1="780.7" x2="523.3" y2="942.0" stroke="#e5e7eb" stroke-width="1"/><text x="523.3" y="977.0" text-anchor="middle" font-family="Arial, sans-serif" font-size="12" fill="#64748b">0.6</text><line x1="644.4" y1="780.7" x2="644.4" y2="942.0" stroke="#e5e7eb" stroke-width="1"/><text x="644.4" y="977.0" text-anchor="middle" font-family="Arial, sans-serif" font-size="12" fill="#64748b">0.8</text><line x1="765.5" y1="780.7" x2="765.5" y2="942.0" stroke="#e5e7eb" stroke-width="1"/><text x="765.5" y="977.0" text-anchor="middle" font-family="Arial, sans-serif" font-size="12" fill="#64748b">1.0</text><line x1="160.0" y1="942.0" x2="765.5" y2="942.0" stroke="#e5e7eb" stroke-width="1"/><text x="150.0" y="946.0" text-anchor="end" font-family="Arial, sans-serif" font-size="12" fill="#64748b">0k</text><line x1="160.0" y1="909.7" x2="765.5" y2="909.7" stroke="#e5e7eb" stroke-width="1"/><text x="150.0" y="913.7" text-anchor="end" font-family="Arial, sans-serif" font-size="12" fill="#64748b">10k</text><line x1="160.0" y1="877.5" x2="765.5" y2="877.5" stroke="#e5e7eb" stroke-width="1"/><text x="150.0" y="881.5" text-anchor="end" font-family="Arial, sans-serif" font-size="12" fill="#64748b">20k</text><line x1="160.0" y1="845.2" x2="765.5" y2="845.2" stroke="#e5e7eb" stroke-width="1"/><text x="150.0" y="849.2" text-anchor="end" font-family="Arial, sans-serif" font-size="12" fill="#64748b">30k</text><line x1="160.0" y1="812.9" x2="765.5" y2="812.9" stroke="#e5e7eb" stroke-width="1"/><text x="150.0" y="816.9" text-anchor="end" font-family="Arial, sans-serif" font-size="12" fill="#64748b">40k</text><line x1="160.0" y1="780.7" x2="765.5" y2="780.7" stroke="#e5e7eb" stroke-width="1"/><text x="150.0" y="784.7" text-anchor="end" font-family="Arial, sans-serif" font-size="12" fill="#64748b">50k</text><line x1="160.0" y1="780.7" x2="160.0" y2="942.0" stroke="#334155" stroke-width="1.5"/><line x1="160.0" y1="942.0" x2="765.5" y2="942.0" stroke="#334155" stroke-width="1.5"/><text x="438.8" y="994.0" text-anchor="middle" font-family="Arial, sans-serif" font-size="13" fill="#334155">read ratio</text><text x="110.0" y="868.3" text-anchor="middle" font-family="Arial, sans-serif" font-size="13" fill="#334155" transform="rotate(-90 110.0 868.3)">MB/s</text><polyline fill="none" stroke="#2563eb" stroke-width="3" points="160.0,891.1 250.8,886.8 311.4,880.8 371.9,876.9 432.5,873.0 462.8,873.1 493.0,867.6 553.6,862.3 614.1,856.3 674.7,846.5 735.2,833.8 765.5,826.5"/><circle cx="160.0" cy="891.1" r="4" fill="#2563eb" stroke="#ffffff" stroke-width="1.2"/><circle cx="250.8" cy="886.8" r="4" fill="#2563eb" stroke="#ffffff" stroke-width="1.2"/><circle cx="311.4" cy="880.8" r="4" fill="#2563eb" stroke="#ffffff" stroke-width="1.2"/><circle cx="371.9" cy="876.9" r="4" fill="#2563eb" stroke="#ffffff" stroke-width="1.2"/><circle cx="432.5" cy="873.0" r="4" fill="#2563eb" stroke="#ffffff" stroke-width="1.2"/><circle cx="462.8" cy="873.1" r="4" fill="#2563eb" stroke="#ffffff" stroke-width="1.2"/><circle cx="493.0" cy="867.6" r="4" fill="#2563eb" stroke="#ffffff" stroke-width="1.2"/><circle cx="553.6" cy="862.3" r="4" fill="#2563eb" stroke="#ffffff" stroke-width="1.2"/><circle cx="614.1" cy="856.3" r="4" fill="#2563eb" stroke="#ffffff" stroke-width="1.2"/><circle cx="674.7" cy="846.5" r="4" fill="#2563eb" stroke="#ffffff" stroke-width="1.2"/><circle cx="735.2" cy="833.8" r="4" fill="#2563eb" stroke="#ffffff" stroke-width="1.2"/><circle cx="765.5" cy="826.5" r="4" fill="#2563eb" stroke="#ffffff" stroke-width="1.2"/><polyline fill="none" stroke="#dc2626" stroke-width="3" points="160.0,889.8 250.8,885.2 311.4,881.7 371.9,878.9 432.5,875.9 462.8,875.4 493.0,875.0 553.6,874.8 614.1,873.1 674.7,871.0 735.2,870.1 765.5,869.1"/><circle cx="160.0" cy="889.8" r="4" fill="#dc2626" stroke="#ffffff" stroke-width="1.2"/><circle cx="250.8" cy="885.2" r="4" fill="#dc2626" stroke="#ffffff" stroke-width="1.2"/><circle cx="311.4" cy="881.7" r="4" fill="#dc2626" stroke="#ffffff" stroke-width="1.2"/><circle cx="371.9" cy="878.9" r="4" fill="#dc2626" stroke="#ffffff" stroke-width="1.2"/><circle cx="432.5" cy="875.9" r="4" fill="#dc2626" stroke="#ffffff" stroke-width="1.2"/><circle cx="462.8" cy="875.4" r="4" fill="#dc2626" stroke="#ffffff" stroke-width="1.2"/><circle cx="493.0" cy="875.0" r="4" fill="#dc2626" stroke="#ffffff" stroke-width="1.2"/><circle cx="553.6" cy="874.8" r="4" fill="#dc2626" stroke="#ffffff" stroke-width="1.2"/><circle cx="614.1" cy="873.1" r="4" fill="#dc2626" stroke="#ffffff" stroke-width="1.2"/><circle cx="674.7" cy="871.0" r="4" fill="#dc2626" stroke="#ffffff" stroke-width="1.2"/><circle cx="735.2" cy="870.1" r="4" fill="#dc2626" stroke="#ffffff" stroke-width="1.2"/><circle cx="765.5" cy="869.1" r="4" fill="#dc2626" stroke="#ffffff" stroke-width="1.2"/><polyline fill="none" stroke="#16a34a" stroke-width="3" points="160.0,842.6 250.8,832.5 311.4,824.2 371.9,821.4 432.5,816.7 462.8,812.6 493.0,811.5 553.6,806.4 614.1,806.6 674.7,802.0 735.2,799.2 765.5,796.5"/><circle cx="160.0" cy="842.6" r="4" fill="#16a34a" stroke="#ffffff" stroke-width="1.2"/><circle cx="250.8" cy="832.5" r="4" fill="#16a34a" stroke="#ffffff" stroke-width="1.2"/><circle cx="311.4" cy="824.2" r="4" fill="#16a34a" stroke="#ffffff" stroke-width="1.2"/><circle cx="371.9" cy="821.4" r="4" fill="#16a34a" stroke="#ffffff" stroke-width="1.2"/><circle cx="432.5" cy="816.7" r="4" fill="#16a34a" stroke="#ffffff" stroke-width="1.2"/><circle cx="462.8" cy="812.6" r="4" fill="#16a34a" stroke="#ffffff" stroke-width="1.2"/><circle cx="493.0" cy="811.5" r="4" fill="#16a34a" stroke="#ffffff" stroke-width="1.2"/><circle cx="553.6" cy="806.4" r="4" fill="#16a34a" stroke="#ffffff" stroke-width="1.2"/><circle cx="614.1" cy="806.6" r="4" fill="#16a34a" stroke="#ffffff" stroke-width="1.2"/><circle cx="674.7" cy="802.0" r="4" fill="#16a34a" stroke="#ffffff" stroke-width="1.2"/><circle cx="735.2" cy="799.2" r="4" fill="#16a34a" stroke="#ffffff" stroke-width="1.2"/><circle cx="765.5" cy="796.5" r="4" fill="#16a34a" stroke="#ffffff" stroke-width="1.2"/><polyline fill="none" stroke="#7c3aed" stroke-width="3" points="160.0,847.5 250.8,839.6 311.4,833.2 371.9,831.5 432.5,826.0 462.8,824.6 493.0,823.4 553.6,821.9 614.1,812.6 674.7,808.4 735.2,796.5 765.5,805.8"/><circle cx="160.0" cy="847.5" r="4" fill="#7c3aed" stroke="#ffffff" stroke-width="1.2"/><circle cx="250.8" cy="839.6" r="4" fill="#7c3aed" stroke="#ffffff" stroke-width="1.2"/><circle cx="311.4" cy="833.2" r="4" fill="#7c3aed" stroke="#ffffff" stroke-width="1.2"/><circle cx="371.9" cy="831.5" r="4" fill="#7c3aed" stroke="#ffffff" stroke-width="1.2"/><circle cx="432.5" cy="826.0" r="4" fill="#7c3aed" stroke="#ffffff" stroke-width="1.2"/><circle cx="462.8" cy="824.6" r="4" fill="#7c3aed" stroke="#ffffff" stroke-width="1.2"/><circle cx="493.0" cy="823.4" r="4" fill="#7c3aed" stroke="#ffffff" stroke-width="1.2"/><circle cx="553.6" cy="821.9" r="4" fill="#7c3aed" stroke="#ffffff" stroke-width="1.2"/><circle cx="614.1" cy="812.6" r="4" fill="#7c3aed" stroke="#ffffff" stroke-width="1.2"/><circle cx="674.7" cy="808.4" r="4" fill="#7c3aed" stroke="#ffffff" stroke-width="1.2"/><circle cx="735.2" cy="796.5" r="4" fill="#7c3aed" stroke="#ffffff" stroke-width="1.2"/><circle cx="765.5" cy="805.8" r="4" fill="#7c3aed" stroke="#ffffff" stroke-width="1.2"/><text x="50%" y="1090" text-anchor="middle" font-family="Arial, sans-serif" font-size="13" fill="#475569">Local DRAM mean 22.6 GB/s | CXL mean 18.5 GB/s | Local + CXL mean 34.7 GB/s | scx_cxl mean 33.0 GB/s</text></svg>