<svg xmlns="http://www.w3.org/2000/svg" width="1400" height="570" viewBox="0 0 1400 570"><rect width="100%" height="100%" fill="#f8fafc"/><text x="50%" y="42" text-anchor="middle" font-family="Arial, sans-serif" font-size="30" font-weight="700" fill="#111827">CXL Policy Bandwidth</text><text x="50%" y="72" text-anchor="middle" font-family="Arial, sans-serif" font-size="16" fill="#475569">double_bandwidth across default, AutoNUMA, and TPP modes</text><line x1="90" y1="102" x2="124" y2="102" stroke="#2563eb" stroke-width="4"/><circle cx="107" cy="102" r="5" fill="#2563eb" stroke="#ffffff" stroke-width="1.3"/><text x="136" y="107" font-family="Arial, sans-serif" font-size="15" fill="#1f2937">Default, NUMA balancing off</text><line x1="300" y1="102" x2="334" y2="102" stroke="#16a34a" stroke-width="4"/><circle cx="317" cy="102" r="5" fill="#16a34a" stroke="#ffffff" stroke-width="1.3"/><text x="346" y="107" font-family="Arial, sans-serif" font-size="15" fill="#1f2937">AutoNUMA</text><line x1="510" y1="102" x2="544" y2="102" stroke="#dc2626" stroke-width="4"/><circle cx="527" cy="102" r="5" fill="#dc2626" stroke="#ffffff" stroke-width="1.3"/><text x="556" y="107" font-family="Arial, sans-serif" font-size="15" fill="#1f2937">TPP / memory tiering</text><rect x="90.0" y="110.0" width="597.5" height="330.0" rx="8" fill="#ffffff" stroke="#cbd5e1" stroke-width="1.3"/><text x="388.8" y="138.0" text-anchor="middle" font-family="Arial, sans-serif" font-size="19" font-weight="700" fill="#0f172a">16 threads, random</text><line x1="160.0" y1="154.0" x2="160.0" y2="382.0" stroke="#e5e7eb" stroke-width="1"/><text x="160.0" y="416.0" text-anchor="middle" font-family="Arial, sans-serif" font-size="12" fill="#64748b">0.0</text><line x1="260.3" y1="154.0" x2="260.3" y2="382.0" stroke="#e5e7eb" stroke-width="1"/><text x="260.3" y="416.0" text-anchor="middle" font-family="Arial, sans-serif" font-size="12" fill="#64748b">0.2</text><line x1="360.6" y1="154.0" x2="360.6" y2="382.0" stroke="#e5e7eb" stroke-width="1"/><text x="360.6" y="416.0" text-anchor="middle" font-family="Arial, sans-serif" font-size="12" fill="#64748b">0.4</text><line x1="460.9" y1="154.0" x2="460.9" y2="382.0" stroke="#e5e7eb" stroke-width="1"/><text x="460.9" y="416.0" text-anchor="middle" font-family="Arial, sans-serif" font-size="12" fill="#64748b">0.6</text><line x1="561.2" y1="154.0" x2="561.2" y2="382.0" stroke="#e5e7eb" stroke-width="1"/><text x="561.2" y="416.0" text-anchor="middle" font-family="Arial, sans-serif" font-size="12" fill="#64748b">0.8</text><line x1="661.5" y1="154.0" x2="661.5" y2="382.0" stroke="#e5e7eb" stroke-width="1"/><text x="661.5" y="416.0" text-anchor="middle" font-family="Arial, sans-serif" font-size="12" fill="#64748b">1.0</text><line x1="160.0" y1="382.0" x2="661.5" y2="382.0" stroke="#e5e7eb" stroke-width="1"/><text x="150.0" y="386.0" text-anchor="end" font-family="Arial, sans-serif" font-size="12" fill="#64748b">0k</text><line x1="160.0" y1="336.4" x2="661.5" y2="336.4" stroke="#e5e7eb" stroke-width="1"/><text x="150.0" y="340.4" text-anchor="end" font-family="Arial, sans-serif" font-size="12" fill="#64748b">10k</text><line x1="160.0" y1="290.8" x2="661.5" y2="290.8" stroke="#e5e7eb" stroke-width="1"/><text x="150.0" y="294.8" text-anchor="end" font-family="Arial, sans-serif" font-size="12" fill="#64748b">20k</text><line x1="160.0" y1="245.2" x2="661.5" y2="245.2" stroke="#e5e7eb" stroke-width="1"/><text x="150.0" y="249.2" text-anchor="end" font-family="Arial, sans-serif" font-size="12" fill="#64748b">30k</text><line x1="160.0" y1="199.6" x2="661.5" y2="199.6" stroke="#e5e7eb" stroke-width="1"/><text x="150.0" y="203.6" text-anchor="end" font-family="Arial, sans-serif" font-size="12" fill="#64748b">40k</text><line x1="160.0" y1="154.0" x2="661.5" y2="154.0" stroke="#e5e7eb" stroke-width="1"/><text x="150.0" y="158.0" text-anchor="end" font-family="Arial, sans-serif" font-size="12" fill="#64748b">50k</text><line x1="160.0" y1="154.0" x2="160.0" y2="382.0" stroke="#334155" stroke-width="1.4"/><line x1="160.0" y1="382.0" x2="661.5" y2="382.0" stroke="#334155" stroke-width="1.4"/><text x="388.8" y="433.0" text-anchor="middle" font-family="Arial, sans-serif" font-size="13" fill="#334155">read ratio</text><text x="110.0" y="275.0" text-anchor="middle" font-family="Arial, sans-serif" font-size="13" fill="#334155" transform="rotate(-90 110.0 275.0)">MB/s</text><polyline fill="none" stroke="#2563eb" stroke-width="3" points="160.0,302.8 410.8,271.8 661.5,238.1"/><circle cx="160.0" cy="302.8" r="4.5" fill="#2563eb" stroke="#ffffff" stroke-width="1.2"/><circle cx="410.8" cy="271.8" r="4.5" fill="#2563eb" stroke="#ffffff" stroke-width="1.2"/><circle cx="661.5" cy="238.1" r="4.5" fill="#2563eb" stroke="#ffffff" stroke-width="1.2"/><polyline fill="none" stroke="#16a34a" stroke-width="3" points="160.0,302.1 410.8,273.8 661.5,237.8"/><circle cx="160.0" cy="302.1" r="4.5" fill="#16a34a" stroke="#ffffff" stroke-width="1.2"/><circle cx="410.8" cy="273.8" r="4.5" fill="#16a34a" stroke="#ffffff" stroke-width="1.2"/><circle cx="661.5" cy="237.8" r="4.5" fill="#16a34a" stroke="#ffffff" stroke-width="1.2"/><polyline fill="none" stroke="#dc2626" stroke-width="3" points="160.0,302.0 410.8,275.2 661.5,237.6"/><circle cx="160.0" cy="302.0" r="4.5" fill="#dc2626" stroke="#ffffff" stroke-width="1.2"/><circle cx="410.8" cy="275.2" r="4.5" fill="#dc2626" stroke="#ffffff" stroke-width="1.2"/><circle cx="661.5" cy="237.6" r="4.5" fill="#dc2626" stroke="#ffffff" stroke-width="1.2"/><rect x="732.5" y="110.0" width="597.5" height="330.0" rx="8" fill="#ffffff" stroke="#cbd5e1" stroke-width="1.3"/><text x="1031.2" y="138.0" text-anchor="middle" font-family="Arial, sans-serif" font-size="19" font-weight="700" fill="#0f172a">48 threads, random</text><line x1="802.5" y1="154.0" x2="802.5" y2="382.0" stroke="#e5e7eb" stroke-width="1"/><text x="802.5" y="416.0" text-anchor="middle" font-family="Arial, sans-serif" font-size="12" fill="#64748b">0.0</text><line x1="902.8" y1="154.0" x2="902.8" y2="382.0" stroke="#e5e7eb" stroke-width="1"/><text x="902.8" y="416.0" text-anchor="middle" font-family="Arial, sans-serif" font-size="12" fill="#64748b">0.2</text><line x1="1003.1" y1="154.0" x2="1003.1" y2="382.0" stroke="#e5e7eb" stroke-width="1"/><text x="1003.1" y="416.0" text-anchor="middle" font-family="Arial, sans-serif" font-size="12" fill="#64748b">0.4</text><line x1="1103.4" y1="154.0" x2="1103.4" y2="382.0" stroke="#e5e7eb" stroke-width="1"/><text x="1103.4" y="416.0" text-anchor="middle" font-family="Arial, sans-serif" font-size="12" fill="#64748b">0.6</text><line x1="1203.7" y1="154.0" x2="1203.7" y2="382.0" stroke="#e5e7eb" stroke-width="1"/><text x="1203.7" y="416.0" text-anchor="middle" font-family="Arial, sans-serif" font-size="12" fill="#64748b">0.8</text><line x1="1304.0" y1="154.0" x2="1304.0" y2="382.0" stroke="#e5e7eb" stroke-width="1"/><text x="1304.0" y="416.0" text-anchor="middle" font-family="Arial, sans-serif" font-size="12" fill="#64748b">1.0</text><line x1="802.5" y1="382.0" x2="1304.0" y2="382.0" stroke="#e5e7eb" stroke-width="1"/><text x="792.5" y="386.0" text-anchor="end" font-family="Arial, sans-serif" font-size="12" fill="#64748b">0k</text><line x1="802.5" y1="336.4" x2="1304.0" y2="336.4" stroke="#e5e7eb" stroke-width="1"/><text x="792.5" y="340.4" text-anchor="end" font-family="Arial, sans-serif" font-size="12" fill="#64748b">10k</text><line x1="802.5" y1="290.8" x2="1304.0" y2="290.8" stroke="#e5e7eb" stroke-width="1"/><text x="792.5" y="294.8" text-anchor="end" font-family="Arial, sans-serif" font-size="12" fill="#64748b">20k</text><line x1="802.5" y1="245.2" x2="1304.0" y2="245.2" stroke="#e5e7eb" stroke-width="1"/><text x="792.5" y="249.2" text-anchor="end" font-family="Arial, sans-serif" font-size="12" fill="#64748b">30k</text><line x1="802.5" y1="199.6" x2="1304.0" y2="199.6" stroke="#e5e7eb" stroke-width="1"/><text x="792.5" y="203.6" text-anchor="end" font-family="Arial, sans-serif" font-size="12" fill="#64748b">40k</text><line x1="802.5" y1="154.0" x2="1304.0" y2="154.0" stroke="#e5e7eb" stroke-width="1"/><text x="792.5" y="158.0" text-anchor="end" font-family="Arial, sans-serif" font-size="12" fill="#64748b">50k</text><line x1="802.5" y1="154.0" x2="802.5" y2="382.0" stroke="#334155" stroke-width="1.4"/><line x1="802.5" y1="382.0" x2="1304.0" y2="382.0" stroke="#334155" stroke-width="1.4"/><text x="1031.2" y="433.0" text-anchor="middle" font-family="Arial, sans-serif" font-size="13" fill="#334155">read ratio</text><text x="752.5" y="275.0" text-anchor="middle" font-family="Arial, sans-serif" font-size="13" fill="#334155" transform="rotate(-90 752.5 275.0)">MB/s</text><polyline fill="none" stroke="#2563eb" stroke-width="3" points="802.5,301.3 1053.2,275.7 1304.0,201.5"/><circle cx="802.5" cy="301.3" r="4.5" fill="#2563eb" stroke="#ffffff" stroke-width="1.2"/><circle cx="1053.2" cy="275.7" r="4.5" fill="#2563eb" stroke="#ffffff" stroke-width="1.2"/><circle cx="1304.0" cy="201.5" r="4.5" fill="#2563eb" stroke="#ffffff" stroke-width="1.2"/><polyline fill="none" stroke="#16a34a" stroke-width="3" points="802.5,301.1 1053.2,274.8 1304.0,201.6"/><circle cx="802.5" cy="301.1" r="4.5" fill="#16a34a" stroke="#ffffff" stroke-width="1.2"/><circle cx="1053.2" cy="274.8" r="4.5" fill="#16a34a" stroke="#ffffff" stroke-width="1.2"/><circle cx="1304.0" cy="201.6" r="4.5" fill="#16a34a" stroke="#ffffff" stroke-width="1.2"/><polyline fill="none" stroke="#dc2626" stroke-width="3" points="802.5,301.0 1053.2,275.3 1304.0,202.7"/><circle cx="802.5" cy="301.0" r="4.5" fill="#dc2626" stroke="#ffffff" stroke-width="1.2"/><circle cx="1053.2" cy="275.3" r="4.5" fill="#dc2626" stroke="#ffffff" stroke-width="1.2"/><circle cx="1304.0" cy="202.7" r="4.5" fill="#dc2626" stroke="#ffffff" stroke-width="1.2"/><text x="50%" y="540" text-anchor="middle" font-family="Arial, sans-serif" font-size="13" fill="#475569">Default, NUMA balancing off: 25.6 GB/s mean | AutoNUMA: 25.6 GB/s mean | TPP / memory tiering: 25.5 GB/s mean</text></svg>